HIERARCHY
ROOT joint_Root
{
	OFFSET 0.0 0.0 0.0
	CHANNELS 6 Xposition Yposition Zposition Zrotation Xrotation Yrotation 
	JOINT Hips
	{
		OFFSET 4.5925 91.4895 -427.239
		CHANNELS 6 Xposition Yposition Zposition Zrotation Xrotation Yrotation 
		JOINT Spine
		{
			OFFSET 15.7357 0.0 0.0
			CHANNELS 6 Xposition Yposition Zposition Zrotation Xrotation Yrotation 
			JOINT Chest
			{
				OFFSET 8.98455 -0.406207 0.0
				CHANNELS 6 Xposition Yposition Zposition Zrotation Xrotation Yrotation 
				JOINT Neck
				{
					OFFSET 16.3773 0.0 0.0
					CHANNELS 6 Xposition Yposition Zposition Zrotation Xrotation Yrotation 
					JOINT Head
					{
						OFFSET 6.45672 0.0 0.0
						CHANNELS 6 Xposition Yposition Zposition Zrotation Xrotation Yrotation 
						End Site
						{
							OFFSET 0.0 0.0 0.0
						}
					}
				}
				JOINT Shoulder_L
				{
					OFFSET 12.9942 -0.242716 4.98039
					CHANNELS 6 Xposition Yposition Zposition Zrotation Xrotation Yrotation 
					JOINT UpperArm_L
					{
						OFFSET 5.34809 0.0 0.0
						CHANNELS 6 Xposition Yposition Zposition Zrotation Xrotation Yrotation 
						JOINT LowerArm_L
						{
							OFFSET 24.3286 1.87007e-05 0.0
							CHANNELS 6 Xposition Yposition Zposition Zrotation Xrotation Yrotation 
							JOINT Hand_L
							{
								OFFSET 22.2916 0.0 0.0
								CHANNELS 6 Xposition Yposition Zposition Zrotation Xrotation Yrotation 
								End Site
								{
									OFFSET 0.0 0.0 0.0
								}
							}
						}
					}
				}
				JOINT Shoulder_R
				{
					OFFSET 12.9945 -0.242716 -4.98039
					CHANNELS 6 Xposition Yposition Zposition Zrotation Xrotation Yrotation 
					JOINT UpperArm_R
					{
						OFFSET -5.34813 0.0 0.0
						CHANNELS 6 Xposition Yposition Zposition Zrotation Xrotation Yrotation 
						JOINT LowerArm_R
						{
							OFFSET -24.3289 0.000322201 0.0
							CHANNELS 6 Xposition Yposition Zposition Zrotation Xrotation Yrotation 
							JOINT Hand_R
							{
								OFFSET -22.2915 -0.000108084 0.0
								CHANNELS 6 Xposition Yposition Zposition Zrotation Xrotation Yrotation 
								End Site
								{
									OFFSET 0.0 0.0 0.0
								}
							}
						}
					}
				}
			}
		}
		JOINT UpperLeg_L
		{
			OFFSET -2.19248 -6.46944 0.0
			CHANNELS 6 Xposition Yposition Zposition Zrotation Xrotation Yrotation 
			JOINT LowerLeg_L
			{
				OFFSET 39.0811 0.0 -1.23785e-05
				CHANNELS 6 Xposition Yposition Zposition Zrotation Xrotation Yrotation 
				JOINT Foot_L
				{
					OFFSET 40.9854 0.0 -1.26872e-05
					CHANNELS 6 Xposition Yposition Zposition Zrotation Xrotation Yrotation 
					JOINT Toes_L
					{
						OFFSET 11.7543 0.0 0.0
						CHANNELS 6 Xposition Yposition Zposition Zrotation Xrotation Yrotation 
						End Site
						{
							OFFSET 0.0 0.0 0.0
						}
					}
				}
			}
		}
		JOINT UpperLeg_R
		{
			OFFSET -2.19251 6.46944 0.0
			CHANNELS 6 Xposition Yposition Zposition Zrotation Xrotation Yrotation 
			JOINT LowerLeg_R
			{
				OFFSET -39.0811 -0.00228153 -0.0401928
				CHANNELS 6 Xposition Yposition Zposition Zrotation Xrotation Yrotation 
				JOINT Foot_R
				{
					OFFSET -40.9854 0.0 0.0
					CHANNELS 6 Xposition Yposition Zposition Zrotation Xrotation Yrotation 
					JOINT Toes_R
					{
						OFFSET -11.7543 0.0 0.0
						CHANNELS 6 Xposition Yposition Zposition Zrotation Xrotation Yrotation 
						End Site
						{
							OFFSET 0.0 0.0 0.0
						}
					}
				}
			}
		}
	}
}
MOTION
Frames:	4
Frame Time:	0.0333333
0.000000 0.000000 0.000000 0.000000 0.000000 -0.000000 2.416490 93.754100 103.878000 -89.689000 -10.462900 166.586000 15.735700 0.000005 -0.000001 35.117800 81.931600 -33.057500 8.984550 -0.406207 -0.000000 1.810740 -13.299300 4.342220 16.377300 -0.000001 -0.000001 -1.762320 -2.790140 0.143569 6.456720 -0.000001 -0.000000 -9.064840 2.090360 2.722710 12.994200 -0.242716 4.980390 -88.954400 -3.732830 -74.340000 5.348090 -0.000007 -0.000001 -57.138300 20.433700 -36.056700 24.328600 0.000019 0.000005 3.916000 0.284790 -85.847100 22.291600 -0.000001 0.000005 3.333130 5.480470 -5.766220 12.994500 -0.242716 -4.980390 89.814300 0.684596 -74.825500 -5.348130 -0.000001 -0.000004 -75.635700 26.774700 36.188700 -24.328900 0.000322 -0.000009 -6.142460 -7.063760 -41.184400 -22.291500 -0.000108 -0.000004 1.358760 5.530280 -7.807600 -2.192480 -6.469440 -0.000000 -169.472000 -11.908100 7.777350 39.081100 -0.000007 -0.000012 0.066997 -0.106270 32.228600 40.985400 -0.000006 -0.000013 -4.117810 5.039860 -36.365200 11.754300 -0.000000 0.000003 -0.004878 -0.060290 -19.029800 -2.192510 6.469440 -0.000001 -172.103000 6.910750 130.698000 -39.081100 -0.002282 -0.040193 0.003100 0.000169 44.494000 -40.985400 0.000008 0.000006 2.187730 -0.222073 -66.289400 -11.754300 -0.000006 -0.000006 -0.016428 -0.146633 -22.558100
0.000000 0.000000 0.000000 0.000000 0.000000 -0.000000 1.485980 93.282000 92.080600 -93.459800 -10.755700 168.722000 15.735700 0.000005 -0.000001 36.888300 81.500000 -36.035800 8.984550 -0.406207 -0.000000 2.608540 -13.623900 2.021070 16.377300 -0.000001 -0.000001 -1.932570 -3.262630 0.044895 6.456720 -0.000001 -0.000000 -9.110510 1.954980 2.720310 12.994200 -0.242716 4.980390 -88.909100 -4.019890 -74.803100 5.348090 -0.000007 -0.000001 -59.677200 23.867900 -29.681200 24.328600 0.000019 0.000005 3.407470 0.381861 -83.613500 22.291600 -0.000001 0.000005 3.313280 5.480340 -5.761570 12.994500 -0.242716 -4.980390 89.509800 1.769140 -74.511000 -5.348130 -0.000001 -0.000004 -78.141300 28.419800 36.669100 -24.328900 0.000322 -0.000009 -8.204280 -9.313010 -41.695100 -22.291500 -0.000108 -0.000004 1.497600 5.545120 -8.477770 -2.192480 -6.469440 -0.000000 -173.074000 -6.403750 10.781200 39.081100 -0.000007 -0.000012 0.106957 -0.115415 42.821100 40.985400 -0.000006 -0.000013 -1.465840 -2.101570 -36.917400 11.754300 -0.000000 0.000003 -0.004499 -0.056539 -18.876900 -2.192510 6.469440 -0.000001 -173.048000 15.432500 138.841000 -39.081100 -0.002282 -0.040193 -0.088219 0.198567 24.747800 -40.985400 0.000008 0.000006 -4.880300 13.470400 -70.210200 -11.754300 -0.000006 -0.000006 -0.019982 -0.167188 -23.403700
0.000000 0.000000 0.000000 0.000000 0.000000 -0.000000 0.682904 91.825100 80.290900 -95.374400 -9.277030 170.694000 15.735700 0.000005 -0.000001 43.568600 81.638900 -43.284800 8.984550 -0.406207 -0.000000 3.861740 -12.109200 0.978360 16.377300 -0.000001 -0.000001 -1.866870 -3.477310 -0.111921 6.456720 -0.000001 -0.000000 -10.171800 1.412130 2.220450 12.994200 -0.242716 4.980390 -89.190600 -2.972800 -74.762400 5.348090 -0.000007 -0.000001 -61.811200 27.057200 -22.521700 24.328600 0.000019 0.000005 3.587710 0.800386 -77.441500 22.291600 -0.000001 0.000005 3.526240 5.487700 -6.045800 12.994500 -0.242716 -4.980390 89.019800 3.598380 -74.751900 -5.348130 -0.000001 -0.000004 -77.147400 28.174000 32.291500 -24.328900 0.000322 -0.000009 -6.904360 -7.987710 -41.064300 -22.291500 -0.000108 -0.000004 3.299320 5.562850 -9.325480 -2.192480 -6.469440 -0.000000 -176.740000 -3.474780 10.914800 39.081100 -0.000007 -0.000012 0.164647 -0.102882 57.999200 40.985400 -0.000006 -0.000013 1.618780 -6.247500 -36.654700 11.754300 -0.000000 0.000003 -0.003817 -0.049535 -18.591600 -2.192510 6.469440 -0.000001 -172.901000 20.356400 142.395000 -39.081100 -0.002282 -0.040193 -0.096031 0.269662 20.225400 -40.985400 0.000008 0.000006 -6.051280 15.425800 -73.771700 -11.754300 -0.000006 -0.000006 -0.020060 -0.167622 -23.421600
0.000000 0.000000 0.000000 0.000000 0.000000 -0.000000 0.170027 89.350500 68.920200 -94.186000 -6.612680 172.511000 15.735700 0.000005 -0.000001 54.129500 81.954400 -53.331700 8.984550 -0.406207 -0.000000 5.397380 -9.424280 2.041930 16.377300 -0.000001 -0.000001 -1.526220 -2.925220 -0.439343 6.456720 -0.000001 -0.000000 -11.344700 0.998579 1.774560 12.994200 -0.242716 4.980390 -89.712100 -1.035080 -74.451600 5.348090 -0.000007 -0.000001 -62.344400 30.027700 -15.709000 24.328600 0.000019 0.000005 5.400760 2.332550 -66.714500 22.291600 -0.000001 0.000005 2.324210 5.503860 -6.689990 12.994500 -0.242716 -4.980390 88.472500 6.067200 -75.839500 -5.348130 -0.000001 -0.000004 -72.095100 26.535400 23.883000 -24.328900 0.000322 -0.000009 -7.247130 -8.015010 -42.360300 -22.291500 -0.000108 -0.000004 6.095090 5.583550 -10.402800 -2.192480 -6.469440 -0.000000 -175.907000 -4.946920 6.054330 39.081100 -0.000007 -0.000012 0.303557 -0.061729 78.504200 40.985400 -0.000006 -0.000013 0.853809 -8.871660 -32.739100 11.754300 -0.000000 0.000003 -0.003468 -0.045792 -18.439200 -2.192510 6.469440 -0.000001 -170.907000 17.522700 142.183000 -39.081100 -0.002282 -0.040193 0.465812 -0.779598 30.680700 -40.985400 0.000008 0.000006 9.375270 2.119710 -76.927400 -11.754300 -0.000006 -0.000006 -0.026458 -0.200746 -24.789300
